<svg width="120" height="24" viewBox="0 0 120 24" fill="none" xmlns="http://www.w3.org/2000/svg">
<path d="M28.1812 9.08545C28.6916 8.2881 29.3455 7.6549 30.143 7.18587C30.9563 6.71684 31.8335 6.48232 32.7745 6.48232V10.774H31.6023C30.5178 10.774 29.6725 11.0007 29.0664 11.4541C28.4763 11.9075 28.1812 12.6736 28.1812 13.7523V19.709H24.0903V6.62303H28.1812V9.08545ZM48.3622 12.8143C48.3622 13.1426 48.3223 13.5022 48.2426 13.893H38.9842C39.0321 14.878 39.2873 15.5894 39.7498 16.0271C40.2123 16.4493 40.8024 16.6603 41.5201 16.6603C42.1262 16.6603 42.6286 16.5118 43.0273 16.2147C43.426 15.9177 43.6892 15.5347 43.8168 15.0656H48.1469C47.9715 15.988 47.5887 16.8167 46.9986 17.5515C46.4085 18.2707 45.6589 18.8413 44.7498 19.2635C43.8407 19.67 42.8279 19.8732 41.7115 19.8732C40.4037 19.8732 39.2394 19.6074 38.2187 19.0758C37.2139 18.5286 36.4244 17.7469 35.8503 16.7307C35.2761 15.7144 34.989 14.5262 34.989 13.166C34.989 11.7902 35.2681 10.602 35.8264 9.60139C36.4005 8.58515 37.198 7.81125 38.2187 7.27968C39.2394 6.73247 40.4037 6.45887 41.7115 6.45887C43.0353 6.45887 44.1995 6.72465 45.2043 7.25622C46.2091 7.78779 46.9826 8.53825 47.5249 9.50758C48.0831 10.4613 48.3622 11.5635 48.3622 12.8143ZM44.2235 12.2045C44.2394 11.3446 44.0002 10.7036 43.5058 10.2815C43.0273 9.84372 42.4292 9.62484 41.7115 9.62484C40.9619 9.62484 40.3399 9.84372 39.8455 10.2815C39.3511 10.7192 39.072 11.3603 39.0082 12.2045H44.2235ZM59.2508 16.2617V19.709H57.4087C55.8457 19.709 54.6256 19.3338 53.7484 18.5834C52.8872 17.8173 52.4566 16.5587 52.4566 14.8077V10.0001H50.6623V6.62303H52.4566V3.41016H56.5475V6.62303H59.2269V10.0001H56.5475V14.878C56.5475 15.3939 56.6511 15.7535 56.8585 15.9568C57.0818 16.16 57.4486 16.2617 57.959 16.2617H59.2508ZM76.0238 6.62303V19.709H71.909V17.3404C71.5262 18.1065 70.952 18.7163 70.1865 19.1697C69.4369 19.6231 68.5597 19.8498 67.5549 19.8498C66.0238 19.8498 64.8037 19.3495 63.8946 18.3488C63.0015 17.3482 62.5549 15.9724 62.5549 14.2214V6.62303H66.6219V13.7289C66.6219 14.62 66.8531 15.3158 67.3157 15.8161C67.7941 16.3007 68.4321 16.5431 69.2295 16.5431C70.0589 16.5431 70.7128 16.2851 71.1913 15.7692C71.6697 15.2532 71.909 14.5184 71.909 13.5647V6.62303H76.0238ZM84.1301 9.08545C84.6405 8.2881 85.2944 7.6549 86.0918 7.18587C86.9052 6.71684 87.7824 6.48232 88.7234 6.48232V10.774H87.5511C86.4666 10.774 85.6213 11.0007 85.0153 11.4541C84.4251 11.9075 84.1301 12.6736 84.1301 13.7523V19.709H80.0392V6.62303H84.1301V9.08545ZM100.101 6.48232C101.632 6.48232 102.844 6.98262 103.737 7.98322C104.646 8.98383 105.101 10.3597 105.101 12.1107V19.709H101.01V12.5797C101.01 11.7042 100.771 11.0241 100.292 10.5395C99.8297 10.0392 99.2077 9.789 98.4262 9.789C97.5968 9.789 96.935 10.047 96.4405 10.5629C95.9621 11.0788 95.7228 11.8137 95.7228 12.7674V19.709H91.6319V6.62303H95.7228V9.0151C96.1056 8.23338 96.6718 7.61582 97.4214 7.16242C98.187 6.70902 99.0801 6.48232 100.101 6.48232ZM113.851 6.45887C115.542 6.45887 116.89 6.87318 117.895 7.70181C118.915 8.53043 119.553 9.62484 119.808 10.985H115.981C115.869 10.4535 115.614 10.0392 115.215 9.7421C114.832 9.42941 114.346 9.27307 113.756 9.27307C113.293 9.27307 112.942 9.37469 112.703 9.57794C112.464 9.76555 112.344 10.0392 112.344 10.3987C112.344 10.8052 112.56 11.1101 112.99 11.3134C113.437 11.5166 114.131 11.7199 115.072 11.9231C116.092 12.1576 116.93 12.3999 117.583 12.6501C118.237 12.8846 118.804 13.2755 119.282 13.8227C119.761 14.3699 120 15.1047 120 16.0271C120 16.7776 119.792 17.4421 119.378 18.0205C118.963 18.599 118.365 19.0524 117.583 19.3807C116.802 19.709 115.877 19.8732 114.808 19.8732C113.006 19.8732 111.563 19.4823 110.478 18.7006C109.394 17.9189 108.732 16.801 108.493 15.347H112.44C112.504 15.9099 112.743 16.3398 113.158 16.6369C113.588 16.9339 114.139 17.0825 114.808 17.0825C115.271 17.0825 115.622 16.9808 115.861 16.7776C116.1 16.5587 116.22 16.2773 116.22 15.9333C116.22 15.4799 115.997 15.1594 115.55 14.9718C115.119 14.7686 114.41 14.5575 113.421 14.3386C112.432 14.1354 111.619 13.9165 110.981 13.682C110.343 13.4475 109.792 13.0722 109.33 12.5563C108.867 12.0247 108.636 11.3055 108.636 10.3987C108.636 9.22616 109.091 8.28028 110 7.5611C110.909 6.82628 112.193 6.45887 113.851 6.45887Z" fill="#18181B"/>
<path d="M14.5577 11.9473C16.013 12.399 17.1067 13.1426 17.8387 14.1779C18.5946 15.2145 18.9341 16.4514 18.8573 17.8886C18.7473 19.945 17.8282 21.5163 16.0998 22.6027C14.3726 23.6668 12.0336 24.1231 9.08285 23.9717C6.13211 23.8201 3.85458 23.1264 2.25032 21.891C0.647225 20.6338 -0.0993535 18.9767 0.010583 16.9204C0.0874223 15.4832 0.556977 14.2878 1.41925 13.3344C2.2827 12.3588 3.46157 11.732 4.95585 11.454C3.7183 10.947 2.7674 10.2108 2.10315 9.24549C1.44009 8.25802 1.14225 7.13412 1.20963 5.87377C1.31366 3.92797 2.1811 2.43157 3.81194 1.38456C5.4428 0.337573 7.6265 -0.115617 10.3631 0.0249624C13.0997 0.165542 15.2231 0.840037 16.7334 2.0484C18.2436 3.25675 18.9467 4.83385 18.8427 6.77966C18.7741 8.0621 18.3575 9.16039 17.5928 10.0745C16.8281 10.9886 15.8164 11.6129 14.5577 11.9473ZM10.184 3.37485C7.20944 3.22202 5.66189 4.2733 5.54131 6.52865C5.48103 7.65633 5.80378 8.53762 6.50955 9.17253C7.24027 9.78655 8.34335 10.1314 9.81871 10.2072C11.2941 10.283 12.416 10.0524 13.1844 9.51545C13.9778 8.95756 14.4047 8.11479 14.465 6.9871C14.5855 4.73173 13.1585 3.52765 10.184 3.37485ZM9.26193 20.6218C12.6648 20.7966 14.4295 19.701 14.556 17.3351C14.6825 14.9692 13.0443 13.6988 9.64141 13.524C6.23852 13.3491 4.47385 14.4447 4.34735 16.8106C4.22087 19.1765 5.85907 20.4469 9.26193 20.6218Z" fill="#18181B"/>
</svg>
